<svg xmlns="http://www.w3.org/2000/svg" xmlns:xlink="http://www.w3.org/1999/xlink" id="Layer_4" x="0" y="0" enable-background="new 0 0 536.9 128" version="1.1" viewBox="0 0 536.9 128" xml:space="preserve"><style type="text/css">.st0{fill:none}.st1{fill:#ffc107}.st2{fill:#0f9d58}.st3{fill:#bf360c}.st3,.st4,.st5{opacity:.2;enable-background:new}.st4{fill:#263238}.st5{fill:#fff}.st6{fill:url(#XMLID_7_)}.st7{fill:url(#XMLID_34_)}.st8{fill:#4285f4}.st9{fill:#db4437}.st10,.st11{opacity:.2;fill:#1a237e;enable-background:new}.st11{fill:#3e2723}.st12{fill:url(#XMLID_35_)}.st13{fill:#fff}.st14{font-family:&apos;ProductSans-Regular&apos;}.st15{font-size:60px}.st16{letter-spacing:6}</style><g id="XMLID_2_"><g id="XMLID_3_"><g id="XMLID_4_"><path id="XMLID_33_" d="M78.7,58L45.1,0H0.3l37,64l-37,64h44.8l33.5-58C80.8,66.3,80.8,61.7,78.7,58z" class="st0"/><path id="XMLID_32_" d="M59.4,102.3L48.8,83.9L23.3,128h21.8l14.6-25.2L59.4,102.3z" class="st1"/><path id="XMLID_31_" d="M78.7,58L45.1,0H0.3l37,64l-37,64h44.8l33.5-58C80.8,66.3,80.8,61.7,78.7,58z" class="st0"/><path id="XMLID_30_" d="M37.3,64l11.5,19.9L23.3,128h-23L37.3,64z" class="st2"/><path id="XMLID_29_" d="M78.7,58L45.1,0H0.3l37,64l-37,64h44.8l33.5-58C80.8,66.3,80.8,61.7,78.7,58z" class="st0"/><path id="XMLID_28_" d="M45.1,127H23.8l-0.5,1h21.8l14.6-25.2l-0.3-0.5L45.1,127z" class="st3"/><path id="XMLID_27_" d="M78.7,58L45.1,0H0.3l37,64l-37,64h44.8l33.5-58C80.8,66.3,80.8,61.7,78.7,58z" class="st0"/><path id="XMLID_26_" d="M0.8,127l-0.5,1h23l0.5-1H0.8z" class="st4"/><path id="XMLID_25_" d="M78.7,58L45.1,0H0.3l37,64l-37,64h44.8l33.5-58C80.8,66.3,80.8,61.7,78.7,58z" class="st0"/><path id="XMLID_24_" d="M0.3,128h0.5l36.8-63.5L37.3,64L0.3,128z" class="st5"/><path id="XMLID_23_" d="M78.7,58L45.1,0H0.3l37,64l-37,64h44.8l33.5-58C80.8,66.3,80.8,61.7,78.7,58z" class="st0"/><radialGradient id="XMLID_7_" cx="59.537" cy="764.374" r="44.264" gradientTransform="matrix(1 0 0 1 0 -662)" gradientUnits="userSpaceOnUse"><stop offset="0" stop-color="#BF360C" stop-opacity=".2"/><stop offset="1" stop-color="#BF360C" stop-opacity=".02"/></radialGradient><path id="XMLID_22_" d="M59.7,102.8L48.8,83.9l-2.7,4.6L59.7,102.8z" class="st6"/><path id="XMLID_21_" d="M78.7,58L45.1,0H0.3l37,64l-37,64h44.8l33.5-58C80.8,66.3,80.8,61.7,78.7,58z" class="st0"/><radialGradient id="XMLID_34_" cx="59.411" cy="764.654" r="44.623" gradientTransform="matrix(1 0 0 1 0 -662)" gradientUnits="userSpaceOnUse"><stop offset="0" stop-color="#263238" stop-opacity=".2"/><stop offset="1" stop-color="#263238" stop-opacity=".02"/></radialGradient><path id="XMLID_20_" d="M46.1,88.5l2.7-4.6L37.3,64l-5.5,9.5L46.1,88.5z" class="st7"/><path id="XMLID_19_" d="M78.7,58L45.1,0H0.3l37,64l-37,64h44.8l33.5-58C80.8,66.3,80.8,61.7,78.7,58z" class="st0"/><g id="XMLID_16_"><g id="XMLID_17_"><path id="XMLID_18_" d="M23.3,0h-23l59.4,102.8l11.5-19.9L23.3,0z" class="st8"/></g></g><path id="XMLID_15_" d="M78.7,58L45.1,0H0.3l37,64l-37,64h44.8l33.5-58C80.8,66.3,80.8,61.7,78.7,58z" class="st0"/><path id="XMLID_14_" d="M78.7,70c2.1-3.7,2.1-8.3,0-12L45.1,0H23.3l47.9,82.9L78.7,70z" class="st9"/><path id="XMLID_13_" d="M78.7,58L45.1,0H0.3l37,64l-37,64h44.8l33.5-58C80.8,66.3,80.8,61.7,78.7,58z" class="st0"/><path id="XMLID_12_" d="M71.2,82.9l-0.3-0.5l-11.2,19.4L0.8,0H0.3l59.4,102.8L71.2,82.9z" class="st10"/><path id="XMLID_11_" d="M78.7,58L45.1,0H0.3l37,64l-37,64h44.8l33.5-58C80.8,66.3,80.8,61.7,78.7,58z" class="st0"/><path id="XMLID_10_" d="M45.1,1l33.5,58c1,1.7,1.5,3.6,1.6,5.5c0.1-2.2-0.4-4.5-1.6-6.5L45.1,0H0.3l0.6,1 C0.9,1,45.1,1,45.1,1z" class="st5"/><path id="XMLID_9_" d="M78.7,58L45.1,0H0.3l37,64l-37,64h44.8l33.5-58C80.8,66.3,80.8,61.7,78.7,58z" class="st0"/><path id="XMLID_8_" d="M71.2,82.9L78.7,70c1.2-2,1.7-4.3,1.6-6.5c-0.1,1.9-0.6,3.8-1.6,5.5L71,82.4L71.2,82.9z" class="st11"/><path id="XMLID_6_" d="M78.7,58L45.1,0H0.3l37,64l-37,64h44.8l33.5-58C80.8,66.3,80.8,61.7,78.7,58z" class="st0"/><radialGradient id="XMLID_35_" cx="-.74" cy="663" r="134.35" gradientTransform="matrix(1 0 0 1 0 -662)" gradientUnits="userSpaceOnUse"><stop offset="0" stop-color="#FFF" stop-opacity=".1"/><stop offset="1" stop-color="#FFF" stop-opacity="0"/></radialGradient><path id="XMLID_5_" d="M78.7,58L45.1,0H0.3l37,64l-37,64h44.8l33.5-58C80.8,66.3,80.8,61.7,78.7,58z" class="st12"/></g></g></g><text transform="matrix(1 0 0 1 108 56.4)"><tspan x="0" y="0" class="st13 st14 st15 st16">GDG DevFest</tspan><tspan x="0" y="60" class="st13 st14 st15 st16">North West</tspan></text></svg>